<svg xmlns="http://www.w3.org/2000/svg" xmlns:xlink="http://www.w3.org/1999/xlink" width="500" zoomAndPan="magnify" viewBox="0 0 375 374.999991" height="500" preserveAspectRatio="xMidYMid meet" version="1.0"><defs><g/><clipPath id="f658559d85"><path d="M 295 126 L 332.855469 126 L 332.855469 230 L 295 230 Z M 295 126 " clip-rule="nonzero"/></clipPath></defs><g fill="#050a30" fill-opacity="1"><g transform="translate(75.491221, 185.413261)"><g><path d="M 23.953125 -30.703125 L 25.6875 0 L 20.15625 0 L 19.59375 -14.03125 C 19.550781 -15.207031 19.523438 -16.300781 19.515625 -17.3125 C 19.515625 -18.320312 19.523438 -19.273438 19.546875 -20.171875 C 19.566406 -21.078125 19.597656 -21.953125 19.640625 -22.796875 C 19.679688 -23.648438 19.726562 -24.492188 19.78125 -25.328125 L 15.796875 -5.296875 L 10.78125 -5.296875 L 6.5 -25.328125 C 6.570312 -24.523438 6.632812 -23.691406 6.6875 -22.828125 C 6.738281 -21.972656 6.773438 -21.082031 6.796875 -20.15625 C 6.828125 -19.238281 6.84375 -18.257812 6.84375 -17.21875 C 6.84375 -16.1875 6.828125 -15.097656 6.796875 -13.953125 L 6.375 0 L 0.953125 0 L 2.6875 -30.703125 L 9.5 -30.703125 L 13.40625 -10.5 L 17.109375 -30.703125 Z M 23.953125 -30.703125 "/></g></g></g><g fill="#050a30" fill-opacity="1"><g transform="translate(97.418832, 185.413261)"><g><path d="M 13.34375 -24.1875 C 15.695312 -24.1875 17.691406 -23.675781 19.328125 -22.65625 C 20.960938 -21.632812 22.203125 -20.195312 23.046875 -18.34375 C 23.898438 -16.488281 24.328125 -14.3125 24.328125 -11.8125 C 24.328125 -9.257812 23.894531 -7.046875 23.03125 -5.171875 C 22.164062 -3.304688 20.914062 -1.863281 19.28125 -0.84375 C 17.644531 0.175781 15.65625 0.6875 13.3125 0.6875 C 10.976562 0.6875 8.988281 0.1875 7.34375 -0.8125 C 5.707031 -1.8125 4.457031 -3.242188 3.59375 -5.109375 C 2.738281 -6.972656 2.3125 -9.191406 2.3125 -11.765625 C 2.3125 -14.234375 2.742188 -16.398438 3.609375 -18.265625 C 4.472656 -20.128906 5.722656 -21.582031 7.359375 -22.625 C 9.003906 -23.664062 11 -24.1875 13.34375 -24.1875 Z M 13.34375 -19.6875 C 11.726562 -19.6875 10.519531 -19.050781 9.71875 -17.78125 C 8.914062 -16.507812 8.515625 -14.503906 8.515625 -11.765625 C 8.515625 -9.015625 8.910156 -7 9.703125 -5.71875 C 10.492188 -4.445312 11.695312 -3.8125 13.3125 -3.8125 C 14.925781 -3.8125 16.128906 -4.445312 16.921875 -5.71875 C 17.710938 -7 18.109375 -9.03125 18.109375 -11.8125 C 18.109375 -14.53125 17.710938 -16.519531 16.921875 -17.78125 C 16.128906 -19.050781 14.9375 -19.6875 13.34375 -19.6875 Z M 13.34375 -19.6875 "/></g></g></g><g fill="#050a30" fill-opacity="1"><g transform="translate(119.346443, 185.413261)"><g><path d="M 24.90625 -23.5 L 16.84375 0 L 9.8125 0 L 1.734375 -23.5 L 8.171875 -23.5 L 13.421875 -4.75 L 18.828125 -23.5 Z M 24.90625 -23.5 "/></g></g></g><g fill="#050a30" fill-opacity="1"><g transform="translate(141.274054, 185.413261)"><g><path d="M 17.140625 -23.5 L 17.140625 -4.21875 L 23.3125 -4.21875 L 23.3125 0 L 4.3125 0 L 4.3125 -4.21875 L 11.140625 -4.21875 L 11.140625 -19.28125 L 4.53125 -19.28125 L 4.53125 -23.5 Z M 13.296875 -35.421875 C 14.390625 -35.421875 15.273438 -35.078125 15.953125 -34.390625 C 16.640625 -33.710938 16.984375 -32.878906 16.984375 -31.890625 C 16.984375 -30.867188 16.640625 -30.019531 15.953125 -29.34375 C 15.273438 -28.664062 14.390625 -28.328125 13.296875 -28.328125 C 12.203125 -28.328125 11.3125 -28.664062 10.625 -29.34375 C 9.9375 -30.019531 9.59375 -30.867188 9.59375 -31.890625 C 9.59375 -32.878906 9.9375 -33.710938 10.625 -34.390625 C 11.3125 -35.078125 12.203125 -35.421875 13.296875 -35.421875 Z M 13.296875 -35.421875 "/></g></g></g><g fill="#050a30" fill-opacity="1"><g transform="translate(163.201666, 185.413261)"><g><path d="M 20.328125 -24.1875 C 21.335938 -24.1875 22.195312 -23.972656 22.90625 -23.546875 C 23.613281 -23.117188 24.160156 -22.410156 24.546875 -21.421875 C 24.929688 -20.441406 25.125 -19.109375 25.125 -17.421875 L 25.125 0 L 19.90625 0 L 19.90625 -16.6875 C 19.90625 -17.726562 19.820312 -18.460938 19.65625 -18.890625 C 19.5 -19.328125 19.125 -19.546875 18.53125 -19.546875 C 18.0625 -19.546875 17.582031 -19.398438 17.09375 -19.109375 C 16.613281 -18.828125 16.109375 -18.332031 15.578125 -17.625 L 15.578125 0 L 11.09375 0 L 11.09375 -16.6875 C 11.09375 -17.726562 11.007812 -18.460938 10.84375 -18.890625 C 10.6875 -19.328125 10.320312 -19.546875 9.75 -19.546875 C 9.257812 -19.546875 8.769531 -19.398438 8.28125 -19.109375 C 7.800781 -18.828125 7.304688 -18.332031 6.796875 -17.625 L 6.796875 0 L 1.515625 0 L 1.515625 -23.5 L 5.96875 -23.5 L 6.34375 -21.078125 C 7.050781 -22.054688 7.789062 -22.816406 8.5625 -23.359375 C 9.332031 -23.910156 10.257812 -24.1875 11.34375 -24.1875 C 12.226562 -24.1875 13.003906 -23.960938 13.671875 -23.515625 C 14.347656 -23.078125 14.835938 -22.34375 15.140625 -21.3125 C 15.835938 -22.164062 16.601562 -22.859375 17.4375 -23.390625 C 18.269531 -23.921875 19.234375 -24.1875 20.328125 -24.1875 Z M 20.328125 -24.1875 "/></g></g></g><g fill="#050a30" fill-opacity="1"><g transform="translate(185.129277, 185.413261)"><g><path d="M 17.140625 -23.5 L 17.140625 -4.21875 L 23.3125 -4.21875 L 23.3125 0 L 4.3125 0 L 4.3125 -4.21875 L 11.140625 -4.21875 L 11.140625 -19.28125 L 4.53125 -19.28125 L 4.53125 -23.5 Z M 13.296875 -35.421875 C 14.390625 -35.421875 15.273438 -35.078125 15.953125 -34.390625 C 16.640625 -33.710938 16.984375 -32.878906 16.984375 -31.890625 C 16.984375 -30.867188 16.640625 -30.019531 15.953125 -29.34375 C 15.273438 -28.664062 14.390625 -28.328125 13.296875 -28.328125 C 12.203125 -28.328125 11.3125 -28.664062 10.625 -29.34375 C 9.9375 -30.019531 9.59375 -30.867188 9.59375 -31.890625 C 9.59375 -32.878906 9.9375 -33.710938 10.625 -34.390625 C 11.3125 -35.078125 12.203125 -35.421875 13.296875 -35.421875 Z M 13.296875 -35.421875 "/></g></g></g><g fill="#050a30" fill-opacity="1"><g transform="translate(207.056888, 185.413261)"><g><path d="M 8.640625 -9.9375 C 8.765625 -8.488281 9.097656 -7.3125 9.640625 -6.40625 C 10.191406 -5.507812 10.898438 -4.851562 11.765625 -4.4375 C 12.640625 -4.019531 13.601562 -3.8125 14.65625 -3.8125 C 15.769531 -3.8125 16.820312 -3.988281 17.8125 -4.34375 C 18.8125 -4.707031 19.789062 -5.195312 20.75 -5.8125 L 23.234375 -2.421875 C 22.140625 -1.503906 20.832031 -0.753906 19.3125 -0.171875 C 17.789062 0.398438 16.109375 0.6875 14.265625 0.6875 C 11.691406 0.6875 9.53125 0.160156 7.78125 -0.890625 C 6.039062 -1.953125 4.722656 -3.414062 3.828125 -5.28125 C 2.929688 -7.144531 2.484375 -9.296875 2.484375 -11.734375 C 2.484375 -14.054688 2.921875 -16.160156 3.796875 -18.046875 C 4.671875 -19.941406 5.9375 -21.4375 7.59375 -22.53125 C 9.25 -23.632812 11.242188 -24.1875 13.578125 -24.1875 C 15.742188 -24.1875 17.617188 -23.710938 19.203125 -22.765625 C 20.785156 -21.828125 22.003906 -20.46875 22.859375 -18.6875 C 23.722656 -16.914062 24.15625 -14.785156 24.15625 -12.296875 C 24.15625 -11.898438 24.144531 -11.488281 24.125 -11.0625 C 24.113281 -10.644531 24.082031 -10.269531 24.03125 -9.9375 Z M 13.609375 -20 C 12.203125 -20 11.050781 -19.492188 10.15625 -18.484375 C 9.257812 -17.484375 8.726562 -15.898438 8.5625 -13.734375 L 18.328125 -13.734375 C 18.296875 -15.691406 17.890625 -17.222656 17.109375 -18.328125 C 16.335938 -19.441406 15.171875 -20 13.609375 -20 Z M 13.609375 -20 "/></g></g></g><g fill="#050a30" fill-opacity="1"><g transform="translate(228.984499, 185.413261)"><g><path d="M 3.53125 0 L 3.53125 -23.5 L 8.75 -23.5 L 9.171875 -20.625 C 10.191406 -21.800781 11.320312 -22.6875 12.5625 -23.28125 C 13.800781 -23.882812 15.148438 -24.1875 16.609375 -24.1875 C 18.703125 -24.1875 20.3125 -23.578125 21.4375 -22.359375 C 22.5625 -21.140625 23.125 -19.421875 23.125 -17.203125 L 23.125 0 L 17.140625 0 L 17.140625 -14.953125 C 17.140625 -16.109375 17.0625 -17.035156 16.90625 -17.734375 C 16.757812 -18.441406 16.484375 -18.945312 16.078125 -19.25 C 15.671875 -19.550781 15.082031 -19.703125 14.3125 -19.703125 C 13.695312 -19.703125 13.101562 -19.566406 12.53125 -19.296875 C 11.957031 -19.035156 11.421875 -18.671875 10.921875 -18.203125 C 10.421875 -17.742188 9.953125 -17.222656 9.515625 -16.640625 L 9.515625 0 Z M 3.53125 0 "/></g></g></g><g fill="#050a30" fill-opacity="1"><g transform="translate(250.91211, 185.413261)"><g><path d="M 23.921875 -1.3125 C 23.035156 -0.75 21.96875 -0.273438 20.71875 0.109375 C 19.46875 0.492188 18.109375 0.6875 16.640625 0.6875 C 13.742188 0.6875 11.570312 -0.0625 10.125 -1.5625 C 8.675781 -3.0625 7.953125 -5.0625 7.953125 -7.5625 L 7.953125 -19.265625 L 2.859375 -19.265625 L 2.859375 -23.5 L 7.953125 -23.5 L 7.953125 -28.671875 L 13.9375 -29.390625 L 13.9375 -23.5 L 21.65625 -23.5 L 21.0625 -19.265625 L 13.9375 -19.265625 L 13.9375 -7.59375 C 13.9375 -6.375 14.222656 -5.488281 14.796875 -4.9375 C 15.378906 -4.382812 16.320312 -4.109375 17.625 -4.109375 C 18.46875 -4.109375 19.238281 -4.207031 19.9375 -4.40625 C 20.644531 -4.601562 21.285156 -4.859375 21.859375 -5.171875 Z M 23.921875 -1.3125 "/></g></g></g><g fill="#050a30" fill-opacity="1"><g transform="translate(272.839721, 185.413261)"><g><path d="M 13.34375 -24.1875 C 15.695312 -24.1875 17.691406 -23.675781 19.328125 -22.65625 C 20.960938 -21.632812 22.203125 -20.195312 23.046875 -18.34375 C 23.898438 -16.488281 24.328125 -14.3125 24.328125 -11.8125 C 24.328125 -9.257812 23.894531 -7.046875 23.03125 -5.171875 C 22.164062 -3.304688 20.914062 -1.863281 19.28125 -0.84375 C 17.644531 0.175781 15.65625 0.6875 13.3125 0.6875 C 10.976562 0.6875 8.988281 0.1875 7.34375 -0.8125 C 5.707031 -1.8125 4.457031 -3.242188 3.59375 -5.109375 C 2.738281 -6.972656 2.3125 -9.191406 2.3125 -11.765625 C 2.3125 -14.234375 2.742188 -16.398438 3.609375 -18.265625 C 4.472656 -20.128906 5.722656 -21.582031 7.359375 -22.625 C 9.003906 -23.664062 11 -24.1875 13.34375 -24.1875 Z M 13.34375 -19.6875 C 11.726562 -19.6875 10.519531 -19.050781 9.71875 -17.78125 C 8.914062 -16.507812 8.515625 -14.503906 8.515625 -11.765625 C 8.515625 -9.015625 8.910156 -7 9.703125 -5.71875 C 10.492188 -4.445312 11.695312 -3.8125 13.3125 -3.8125 C 14.925781 -3.8125 16.128906 -4.445312 16.921875 -5.71875 C 17.710938 -7 18.109375 -9.03125 18.109375 -11.8125 C 18.109375 -14.53125 17.710938 -16.519531 16.921875 -17.78125 C 16.128906 -19.050781 14.9375 -19.6875 13.34375 -19.6875 Z M 13.34375 -19.6875 "/></g></g></g><path fill="#050a30" d="M 78.730469 226.441406 C 73.964844 225.871094 68.464844 227.753906 64.09375 225.101562 C 59.847656 222.519531 60.277344 216.421875 60.472656 212.121094 C 60.914062 202.40625 63.230469 190.769531 56.585938 182.496094 C 55.011719 180.535156 53.011719 178.941406 50.777344 177.945312 C 52.21875 177.175781 53.546875 176.171875 54.703125 175.015625 C 58.097656 171.617188 59.953125 167.039062 60.6875 162.324219 C 61.511719 157.011719 60.988281 151.65625 60.597656 146.332031 C 60.398438 143.585938 60.234375 140.832031 60.355469 138.082031 C 60.441406 136.09375 60.675781 133.714844 62.054688 132.160156 C 63.652344 130.359375 66.375 129.902344 68.65625 129.851562 C 71.71875 129.78125 74.742188 130.261719 77.804688 129.894531 C 79.007812 129.75 80.035156 126.746094 78.355469 126.949219 C 73.554688 127.523438 68.617188 125.917969 64.03125 128.039062 C 59.617188 130.078125 58.207031 134.871094 58.007812 139.394531 C 57.765625 144.917969 58.632812 150.40625 58.773438 155.914062 C 58.898438 160.777344 58.46875 165.960938 55.957031 170.230469 C 53.535156 174.351562 48.863281 177.144531 44.058594 176.46875 C 43.019531 176.320312 41.929688 178.367188 42.4375 179.164062 C 42.464844 179.625 42.71875 179.953125 43.308594 179.867188 C 47.648438 179.261719 51.890625 181.644531 54.566406 184.96875 C 57.660156 188.820312 58.683594 193.894531 58.851562 198.734375 C 59.039062 204.144531 58.203125 209.519531 58.070312 214.917969 C 57.964844 219.292969 58.035156 224.742188 61.925781 227.578125 C 66.472656 230.898438 72.484375 228.824219 77.605469 229.4375 C 78.859375 229.59375 80.171875 226.617188 78.730469 226.441406 Z M 78.730469 226.441406 " fill-opacity="1" fill-rule="nonzero"/><g clip-path="url(#f658559d85)"><path fill="#050a30" d="M 296.261719 226.441406 C 301.023438 225.871094 306.523438 227.753906 310.894531 225.101562 C 315.140625 222.519531 314.710938 216.421875 314.515625 212.121094 C 314.074219 202.40625 311.757812 190.769531 318.402344 182.496094 C 319.976562 180.535156 321.976562 178.941406 324.210938 177.945312 C 322.769531 177.175781 321.441406 176.171875 320.285156 175.015625 C 316.890625 171.617188 315.035156 167.039062 314.300781 162.324219 C 313.476562 157.011719 314 151.65625 314.390625 146.332031 C 314.589844 143.585938 314.753906 140.832031 314.632812 138.082031 C 314.546875 136.09375 314.3125 133.714844 312.933594 132.160156 C 311.335938 130.359375 308.613281 129.902344 306.335938 129.851562 C 303.269531 129.78125 300.246094 130.261719 297.183594 129.894531 C 295.980469 129.75 294.953125 126.746094 296.632812 126.949219 C 301.433594 127.523438 306.371094 125.917969 310.957031 128.039062 C 315.371094 130.078125 316.78125 134.871094 316.980469 139.394531 C 317.222656 144.917969 316.355469 150.40625 316.214844 155.914062 C 316.089844 160.777344 316.519531 165.960938 319.03125 170.230469 C 321.453125 174.351562 326.125 177.144531 330.929688 176.46875 C 331.96875 176.320312 333.058594 178.367188 332.550781 179.164062 C 332.523438 179.625 332.269531 179.953125 331.679688 179.867188 C 327.339844 179.261719 323.097656 181.644531 320.421875 184.96875 C 317.328125 188.820312 316.304688 193.894531 316.136719 198.734375 C 315.949219 204.144531 316.785156 209.519531 316.917969 214.917969 C 317.023438 219.292969 316.953125 224.742188 313.0625 227.578125 C 308.519531 230.898438 302.503906 228.824219 297.382812 229.4375 C 296.128906 229.59375 294.816406 226.617188 296.261719 226.441406 Z M 296.261719 226.441406 " fill-opacity="1" fill-rule="nonzero"/></g></svg>